<svg x="0" y="0" width="48" height="48" version="1.1" xmlns="http://www.w3.org/2000/svg" xmlns:xlink="http://www.w3.org/1999/xlink"><defs><linearGradient x1="10.85341" y1="10.75041" x2="44.37629" y2="44.27329" gradientUnits="userSpaceOnUse" id="color-1"><stop offset="0.25" stop-color="#000000" stop-opacity="0.88"></stop><stop offset="1" stop-color="#000000" stop-opacity="0"></stop></linearGradient><filter id="dropshadow"><feColorMatrix type="matrix" values="0 0 0 0 .05  0 0 0 0 .15  0 0 0 0 .1  0 0 0 .8 0"></feColorMatrix> <feOffset dx="0" dy="1"></feOffset> <feGaussianBlur stdDeviation="1"></feGaussianBlur> <feComposite in="SourceGraphic"></feComposite></filter></defs><g fill="none" stroke="none" stroke-width="none" stroke-linecap="butt" stroke-linejoin="miter" stroke-miterlimit="none" stroke-dasharray="" stroke-dashoffset="0" font-family="none" font-weight="none" font-size="none" text-anchor="start" mix-blend-mode="normal"><g fill="#000000" stroke="none" stroke-width="1" stroke-miterlimit="4" font-family="&quot;Open Sans&quot;,sans-serif" font-weight="400" font-size="14"></g><path d="M3,24c0,-11.59798 9.40202,-21 21,-21c11.59798,0 21,9.40202 21,21c0,11.59798 -9.40202,21 -21,21c-11.59798,0 -21,-9.40202 -21,-21z" fill="#f5f5f5" stroke-width="1" stroke-miterlimit="10" font-family="sans-serif" font-weight="normal" font-size="12" filter="url(#dropshadow)"></path><path d="M29.62357,44.23856c-0.35523,-0.07074 -0.67268,-0.24596 -0.91902,-0.49229l-17.32412,-17.32412c-0.32566,-0.32566 -0.52702,-0.77563 -0.52702,-1.27284l1.79986,1.79986l0.00001,0l-1.79987,-1.79987l0,-12.59903c0,-0.99442 0.80544,-1.79986 1.79986,-1.79986l8.35261,8.35261l0,-0.00001l-8.35261,-8.35261l12.59903,0c0.49721,0 0.94718,0.20136 1.27284,0.52702l17.32412,17.32412c0.21201,0.21201 0.37134,0.4767 0.45672,0.77281c-0.0298,0.1129 -0.06052,0.22543 -0.09215,0.33758c0,0 -1.63741,-1.63741 -1.63741,-1.63741l-0.00001,0c0,0 1.63742,1.63742 1.63742,1.63742c-1.98408,7.03548 -7.54229,12.57247 -14.59028,14.52661z" fill="url(#color-1)" stroke-width="1" stroke-miterlimit="10" font-family="sans-serif" font-weight="normal" font-size="12"></path><path d="M25.25231,26.94916l-12.59903,0c-0.99442,0 -1.79986,-0.80544 -1.79986,-1.79986l0,-12.59903c0,-0.99442 0.80544,-1.79986 1.79986,-1.79986l12.59903,0c0.99442,0 1.79986,0.80544 1.79986,1.79986l0,12.59903c0,0.99442 -0.80544,1.79986 -1.79986,1.79986z M12.65327,24.24937l12.59903,0l-4.04969,-5.39959l-3.14976,4.05419l-2.24983,-2.70429z" fill="#7c4dff" stroke="none" stroke-width="0" stroke-miterlimit="4" font-family="&quot;Open Sans&quot;,sans-serif" font-weight="400" font-size="14"></path></g></svg>